<?xml version="1.0" standalone="no"?><!DOCTYPE svg PUBLIC "-//W3C//DTD SVG 1.1//EN" "http://www.w3.org/Graphics/SVG/1.1/DTD/svg11.dtd"><svg class="icon" width="200px" height="200.00px" viewBox="0 0 1024 1024" version="1.1" xmlns="http://www.w3.org/2000/svg"><path d="M595.968 283.648q0 53.248-18.944 100.864t-50.688 82.944-73.728 55.808-88.064 20.48-87.552-19.456-73.216-54.784-50.688-84.48-18.944-107.52q0-46.08 18.432-87.552t49.152-72.704 72.192-50.176 87.552-18.944 88.064 19.456 74.752 52.224 52.224 75.264 19.456 88.576zM323.584 615.424l-1.024 362.496 37.888-48.128 38.912 48.128 0-362.496-75.776 0zM568.32 97.28q21.504 25.6 38.912 54.272 14.336 25.6 26.624 58.368t11.264 68.608q-1.024 62.464-12.8 104.448t-26.112 67.584q-17.408 30.72-37.888 48.128 29.696-3.072 59.392-9.216 25.6-5.12 55.296-13.824t56.32-22.016q23.552-12.288 44.544-32.256t35.84-47.616 20.992-62.464 0-76.8q-6.144-43.008-35.84-76.8t-70.656-53.76-85.504-23.04-80.384 16.384zM569.344 556.032l-1.024 346.112 35.84-46.08 37.888 46.08 0-346.112-72.704 0z" /></svg>