<?xml version="1.0" standalone="no"?><!DOCTYPE svg PUBLIC "-//W3C//DTD SVG 1.1//EN" "http://www.w3.org/Graphics/SVG/1.1/DTD/svg11.dtd"><svg class="icon" width="200px" height="200.00px" viewBox="0 0 1024 1024" version="1.1" xmlns="http://www.w3.org/2000/svg"><path d="M795.648 904.192q0 43.008-20.992 64t-67.072 20.992l-372.736-1.024q-38.912 1.024-62.464-23.552t-23.552-65.536l0-677.888q0-45.056 25.6-69.632t73.728-24.576l252.928 0 0-55.296q0-15.36 10.24-26.624t24.576-11.264 24.064 11.264 9.728 26.624l0 55.296 25.6 0q54.272 0 77.312 26.624t23.04 66.56l0 684.032zM710.656 316.416q0-26.624-12.288-40.448t-44.032-13.824l-260.096 0q-57.344-1.024-59.392 46.08l0 258.048q0 19.456 12.8 34.304t44.544 14.848l262.144 0q30.72-1.024 43.52-14.848t12.8-36.352l0-247.808z" /></svg>